<?xml version="1.0" encoding="utf-8"?>
<!-- Generator: Adobe Illustrator 22.1.0, SVG Export Plug-In . SVG Version: 6.00 Build 0)  -->
<svg version="1.1" id="Layer_1" xmlns="http://www.w3.org/2000/svg" xmlns:xlink="http://www.w3.org/1999/xlink" x="0px" y="0px"
	 viewBox="0 0 84 84" style="enable-background:new 0 0 84 84;" xml:space="preserve">
<style type="text/css">
	.st0{fill:#1B2150;}
</style>
<g>
	<path class="st0" d="M78.1,8.7H63.2V1.7c0-0.5-0.5-1.1-1-1.1H21.4c-0.5,0-1.1,0.5-1.1,1.1v7.1H5c-0.3,0-0.6,0.1-0.8,0.4
		C4.1,9.3,4,9.5,4,9.9C4,9.9,4.2,16,6.5,23.2c3,9.4,8.2,16,14.9,19l0.2,0.1l0.1,0.2C23.8,50,29,55.9,35.4,58.2l0.3,0.1v0.6
		c0,8.2-6.2,14.6-14.1,14.6c-0.5,0-1,0.5-1,1.1v8.1c0,0.5,0.5,1,1,1h40.6c0.5,0,1-0.5,1-1v-8.1c0-0.5-0.5-1.1-1-1.1
		c-8.1,0-14.6-6.6-14.6-14.6v-0.5l0.3-0.1c6.7-2.3,12-8.3,14.3-16.1l0-0.2l0.2-0.1c6.5-3.1,11.5-9.6,14.4-18.8
		c2.3-7.1,2.5-13.3,2.5-13.4c0.1-0.3-0.2-0.6-0.3-0.7C78.6,8.9,78.3,8.7,78.1,8.7z M20.1,39.1C9.1,32.5,6.7,16.1,6.2,11.3l0-0.4
		h14.2v23.3c0,1.8,0.1,3.2,0.4,4.6l0.2,0.8L20.1,39.1z M60.7,75.5l0.4,0v6H22.6v-6l0.4,0c8.2-0.7,14.5-7.6,14.7-16.1l0-0.4l0.4,0.1
		c1.1,0.2,2.4,0.4,3.6,0.4c1.1,0,2.3-0.1,3.3-0.3l0.4-0.1l0,0.4C45.8,67.9,52.4,74.8,60.7,75.5z M61.1,34.2
		c0,10.3-5.8,19.4-14.2,22.2l-1.3,0.4c-1.4,0.3-2.7,0.5-3.8,0.5c-1.5,0-2.9-0.2-4.3-0.6l-0.2-0.1c-0.2-0.1-0.5-0.2-0.6-0.2h-0.1
		l-0.1,0c-8.3-2.8-14.1-11.9-14.1-22.2V2.8h38.7V34.2z M77,11.3c-0.5,4.8-2.8,20.8-13.5,27.7l-0.7,0.4l0.1-0.8
		c0.2-1.5,0.4-3,0.4-4.4V10.8h13.8L77,11.3z"/>
	<path class="st0" d="M33.4,29.7l-1.4,8c-0.2,0.7,0.1,1.4,0.8,1.9c0.4,0.3,0.8,0.4,1.2,0.4c0.3,0,0.6-0.1,0.9-0.2l7.4-3.7l7,3.7
		c0.3,0.1,0.6,0.2,0.9,0.2c0.4,0,0.8-0.1,1.1-0.4c0.6-0.5,0.9-1.1,0.8-1.9l-1.4-8l5.9-5.7c0.6-0.6,0.7-1.3,0.5-1.9
		c-0.5-0.9-1.1-1.4-1.8-1.4l-8-1.2l-3.6-7.3c-0.3-0.7-1.1-1.1-1.8-1.1c-0.8,0-1.5,0.4-1.8,1.1l-3.6,7.3l-8,1.2
		c-0.7,0.1-1.3,0.6-1.6,1.4c-0.2,0.7-0.1,1.5,0.5,2L33.4,29.7z M37.6,21.4c0.4-0.1,0.6-0.3,0.8-0.6l3.7-7.6l3.7,7.6
		c0.1,0.3,0.4,0.6,0.8,0.6l8.3,1.3l-5.9,5.9c-0.3,0.2-0.3,0.6-0.2,0.9l1.5,8.3L42.9,34c-0.1-0.1-0.3-0.1-0.5-0.1
		c-0.2,0-0.4,0-0.5,0.1l-7.7,3.9l1.5-8.4c0.1-0.4-0.1-0.7-0.3-0.9l-6-5.9L37.6,21.4z"/>
</g>
</svg>
