<?xml version="1.0" encoding="utf-8"?>
<!-- Generator: Adobe Illustrator 22.1.0, SVG Export Plug-In . SVG Version: 6.00 Build 0)  -->
<svg version="1.1" id="Layer_1" xmlns="http://www.w3.org/2000/svg" xmlns:xlink="http://www.w3.org/1999/xlink" x="0px" y="0px"
	 viewBox="0 0 84 84" style="enable-background:new 0 0 84 84;" xml:space="preserve">
<style type="text/css">
	.st0{fill:#FFFFFF;}
</style>
<g>
	<path class="st0" d="M44.6,19.2c-0.3-0.1-0.7,0.1-0.9,0.3c-0.3,0.2-0.4,0.6-0.4,0.9v2.8h-4v-2.8c0-0.3-0.1-0.7-0.4-0.9
		c-0.3-0.2-0.6-0.3-0.9-0.3C26.5,20.9,17.8,31,17.8,42.7S26.5,64.5,38,66.2c0.3,0.1,0.7-0.1,0.9-0.3c0.3-0.2,0.4-0.6,0.4-0.9v-2.8h4
		V65c0,0.3,0.1,0.7,0.4,0.9c0.2,0.2,0.5,0.3,0.8,0.3c0.1,0,0.1,0,0.2,0c11.4-1.7,20.1-11.8,20.1-23.5S56.1,20.9,44.6,19.2z
		 M45.7,63.6v-2.5c0-0.7-0.5-1.2-1.2-1.2h-6.3c-0.7,0-1.2,0.5-1.2,1.2v2.5c-9.7-2-16.8-10.8-16.8-20.9S27.3,23.9,37,21.8v2.5
		c0,0.7,0.5,1.2,1.2,1.2h6.3c0.7,0,1.2-0.5,1.2-1.2v-2.5c9.7,2,16.8,10.8,16.8,20.9C62.4,52.8,55.3,61.5,45.7,63.6z"/>
	<path class="st0" d="M30.3,38.2c-2.5,0-4.5,2-4.5,4.5s2,4.5,4.5,4.5s4.5-2,4.5-4.5S32.8,38.2,30.3,38.2z M30.3,44.9
		c-1.2,0-2.2-1-2.2-2.2s1-2.2,2.2-2.2s2.2,1,2.2,2.2S31.5,44.9,30.3,44.9z"/>
	<path class="st0" d="M52.3,38.2c-2.5,0-4.5,2-4.5,4.5s2,4.5,4.5,4.5s4.5-2,4.5-4.5S54.8,38.2,52.3,38.2z M52.3,44.9
		c-1.2,0-2.2-1-2.2-2.2s1-2.2,2.2-2.2s2.2,1,2.2,2.2S53.5,44.9,52.3,44.9z"/>
	<path class="st0" d="M68.7,8.2H13.9c-3.9,0-7.1,3.2-7.1,7.1v54.9c0,3.8,3.2,7,7.1,7h54.9c3.9,0,7.1-3.2,7.1-7.1V15.3
		C75.8,11.4,72.6,8.2,68.7,8.2z M73.4,70.1c0,2.6-2.1,4.7-4.7,4.7H13.9c-2.6,0-4.7-2.1-4.7-4.7V15.3c0-2.6,2.1-4.7,4.7-4.7h54.9
		c2.6,0,4.7,2.1,4.7,4.7L73.4,70.1L73.4,70.1z"/>
</g>
</svg>
