<svg version="1.1" id="Layer_1" xmlns="http://www.w3.org/2000/svg" x="0" y="0" viewBox="0 0 70 75" xml:space="preserve"><style>.st0{fill:#fff}</style><path class="st0" d="M68.8 0h-7.9c-2.6 0-4.6 2.1-4.6 4.7v1.2h-26C16.7 5.9 5.5 17.1 5.5 30.8v30.4h-.9C2 61.2 0 63.3 0 65.9v8c0 .6.5 1.1 1.2 1.1h31.6c.7 0 1.2-.5 1.2-1.2v-8c0-2.6-2.1-4.7-4.6-4.7h-1.1V36.5c0-4.5 3.6-8.1 8.1-8.1h19.9v1.1c0 2.6 2.1 4.7 4.6 4.7h7.9c.7 0 1.2-.5 1.2-1.2V1.2c0-.7-.5-1.2-1.2-1.2zM29.3 63.5c1.3 0 2.3 1 2.3 2.3v6.8H2.4v-6.8c0-1.3 1-2.3 2.3-2.3h24.6zM56.2 26H45.6v-3.3l6.5-3.7c.6-.3.8-1 .4-1.6-.3-.6-1-.8-1.6-.5l-6.5 3.7-3.5-2.2 2.9-4.1c.4-.5.3-1.3-.3-1.7-.5-.4-1.3-.3-1.6.3L38.3 18c-.2.3-.3.6-.2.9.1.3.3.6.5.8l4.6 2.9V26h-7c-5.7 0-10.4 4.7-10.4 10.5v24.7h-18V30.8C7.9 18.4 18 8.3 30.3 8.3h25.9V26zm11.4 5.8h-6.8c-1.3 0-2.3-1-2.3-2.3V4.7c0-1.3 1-2.3 2.3-2.3h6.8v29.4z"/><path class="st0" d="M51 42.5c0-2.6-3.8-8.7-4.5-9.9-.2-.3-.6-.5-1-.5s-.8.2-1 .5c-.8 1.2-4.5 7.3-4.5 9.9 0 3 2.5 5.5 5.5 5.5s5.5-2.5 5.5-5.5zm-5.5 3.2c-1.8 0-3.2-1.4-3.2-3.2 0-1.2 1.7-4.5 3.2-7.1 1.6 2.7 3.2 5.9 3.2 7.1 0 1.8-1.4 3.2-3.2 3.2zM53.5 45c-.4 0-.8.2-1 .5-.8 1.2-4.5 7.3-4.5 9.9 0 3 2.5 5.5 5.5 5.5s5.5-2.5 5.5-5.5c0-2.6-3.8-8.7-4.5-9.9-.2-.3-.6-.5-1-.5zm0 13.7c-1.8 0-3.2-1.4-3.2-3.2 0-1.2 1.7-4.5 3.2-7.1 1.6 2.7 3.2 5.9 3.2 7.1 0 1.8-1.4 3.2-3.2 3.2z"/></svg>