<?xml version="1.0" encoding="utf-8"?>
<!-- Generator: Adobe Illustrator 22.1.0, SVG Export Plug-In . SVG Version: 6.00 Build 0)  -->
<svg version="1.1" id="Layer_1" xmlns="http://www.w3.org/2000/svg" xmlns:xlink="http://www.w3.org/1999/xlink" x="0px" y="0px"
	 viewBox="0 0 84 84" style="enable-background:new 0 0 84 84;" xml:space="preserve">
<style type="text/css">
	.st0{fill:#FFFFFF;}
</style>
<title>Group 27</title>
<desc>Created with Sketch.</desc>
<g>
	<path class="st0" d="M75.8,4h-7.9c-2.6,0-4.6,2.1-4.6,4.7v1.2h-26c-13.6,0-24.8,11.2-24.8,24.9v30.4h-0.9C9,65.2,7,67.3,7,69.9v8
		C7,78.5,7.5,79,8.2,79h31.6c0.7,0,1.2-0.5,1.2-1.2v-8c0-2.6-2.1-4.7-4.6-4.7h-1.1V40.5c0-4.5,3.6-8.1,8.1-8.1h19.9v1.1
		c0,2.6,2.1,4.7,4.6,4.7h7.9c0.7,0,1.2-0.5,1.2-1.2V5.2C77,4.5,76.5,4,75.8,4z M36.3,67.5c1.3,0,2.3,1,2.3,2.3v6.8H9.4v-6.8
		c0-1.3,1-2.3,2.3-2.3C11.7,67.5,36.3,67.5,36.3,67.5z M63.2,30H52.6v-3.3l6.5-3.7c0.6-0.3,0.8-1,0.4-1.6c-0.3-0.6-1-0.8-1.6-0.5
		l-6.5,3.7l-3.5-2.2l2.9-4.1c0.4-0.5,0.3-1.3-0.3-1.7c-0.5-0.4-1.3-0.3-1.6,0.3L45.3,22c-0.2,0.3-0.3,0.6-0.2,0.9s0.3,0.6,0.5,0.8
		l4.6,2.9V30h-7c-5.7,0-10.4,4.7-10.4,10.5v24.7h-18V34.8C14.9,22.4,25,12.3,37.3,12.3h25.9C63.2,12.3,63.2,30,63.2,30z M74.6,35.8
		h-6.8c-1.3,0-2.3-1-2.3-2.3V8.7c0-1.3,1-2.3,2.3-2.3h6.8V35.8z"/>
	<path class="st0" d="M58,46.5c0-2.6-3.8-8.7-4.5-9.9c-0.2-0.3-0.6-0.5-1-0.5s-0.8,0.2-1,0.5c-0.8,1.2-4.5,7.3-4.5,9.9
		c0,3,2.5,5.5,5.5,5.5S58,49.5,58,46.5z M52.5,49.7c-1.8,0-3.2-1.4-3.2-3.2c0-1.2,1.7-4.5,3.2-7.1c1.6,2.7,3.2,5.9,3.2,7.1
		C55.7,48.3,54.3,49.7,52.5,49.7z"/>
	<path class="st0" d="M60.5,49c-0.4,0-0.8,0.2-1,0.5c-0.8,1.2-4.5,7.3-4.5,9.9c0,3,2.5,5.5,5.5,5.5s5.5-2.5,5.5-5.5
		c0-2.6-3.8-8.7-4.5-9.9C61.3,49.2,60.9,49,60.5,49z M60.5,62.7c-1.8,0-3.2-1.4-3.2-3.2c0-1.2,1.7-4.5,3.2-7.1
		c1.6,2.7,3.2,5.9,3.2,7.1C63.7,61.3,62.3,62.7,60.5,62.7z"/>
</g>
</svg>
