<svg xmlns="http://www.w3.org/2000/svg" xmlns:xlink="http://www.w3.org/1999/xlink" width="228" height="82" viewBox="0 0 228 82"><defs><path id="a" d="M191.7 4335.29v12.12h4.8v-1.23h-3.45v-10.9z"/><path id="b" d="M201.84 4340.66v1.2h-2.96v4.32h3.64v1.23h-4.99v-12.12h4.99v1.23h-3.64v4.14z"/><path id="c" d="M209 4338.2v.32h-1.27v-.4c0-1.08-.42-1.72-1.39-1.72s-1.38.64-1.38 1.7c0 2.73 4.06 2.99 4.06 6.4 0 1.83-.88 3.02-2.73 3.02s-2.71-1.2-2.71-3.03v-.69h1.26v.76c0 1.1.45 1.73 1.42 1.73.96 0 1.41-.64 1.41-1.73 0-2.7-4.04-2.95-4.04-6.36 0-1.87.86-3.03 2.68-3.03 1.83 0 2.7 1.2 2.7 3.03"/><path id="d" d="M222.6 4334.37c5.75 0 8.02 2.74 8.02 8.18v1.74c0 3.9-1.11 6.33-4.33 7.33 3.59 1 4.96 3.86 4.96 7.92v3.11c0 5.54-2.7 8.66-8.44 8.66h-8.5v-36.94zm-1.01 15.67c3.27 0 4.95-1.05 4.95-4.9v-2.17c0-3.27-1.1-4.85-4.06-4.85h-4.05v11.92zm1.22 17.52c3 0 4.38-1.58 4.38-5.01v-3.27c0-4.12-1.64-5.5-5.18-5.5h-3.58v13.78z"/><path id="e" d="M234.68 4343.29c0-5.65 2.8-9.29 8.44-9.29 5.7 0 8.5 3.64 8.5 9.29v19.1c0 5.6-2.8 9.28-8.5 9.28-5.64 0-8.44-3.69-8.44-9.28zm4.06 19.3c0 3.39 1.43 5.34 4.38 5.34 3.01 0 4.38-1.95 4.38-5.33v-19.52c0-3.33-1.37-5.33-4.38-5.33-2.95 0-4.38 2-4.38 5.33z"/><path id="f" d="M259.17 4371.3h-3.7v-36.93h5.23l8.55 26.7v-26.7h3.65v36.94h-4.28l-9.45-29.87z"/><path id="g" d="M293.1 4343.23v1h-3.9v-1.2c0-3.33-1.27-5.28-4.23-5.28-2.95 0-4.22 1.95-4.22 5.22 0 8.28 12.4 9.08 12.4 19.47 0 5.6-2.7 9.23-8.34 9.23s-8.28-3.64-8.28-9.23v-2.11h3.85v2.32c0 3.33 1.37 5.28 4.33 5.28 2.95 0 4.32-1.95 4.32-5.28 0-8.23-12.34-9.02-12.34-19.42 0-5.7 2.64-9.23 8.18-9.23 5.59 0 8.23 3.64 8.23 9.23"/><path id="h" d="M212.21 4410.04h-12.98l-1.58 4.27H191l14.72-37.99 14.78 38h-6.65zm-10.97-5.33h8.97l-4.49-12.82z"/><path id="i" d="M244.03 4414.32l-9.6-15.41h-3.54v15.4h-6.17v-21.52h5.86l-5.86-9.24v-6.17h12.3s12.34 0 12.34 10.76c0 6.55-4.54 9.13-8.12 10.13l10.02 16.05zm-6.22-21.59c1.64-.15 5.39-.94 5.39-4.59 0-4.59-6.18-4.59-6.18-4.59h-4.97z"/><path id="j" d="M275.48 4383.02h-7.75v31.28h-6.13v-31.28h-7.75v-5.64h21.63z"/><path id="k" d="M288.67 4383.02v25.64h4.32v5.64h-14.81v-5.64h4.32v-25.64h-4.11v-5.64h14.4v5.64z"/><path id="l" d="M297.75 4404.08h6.18c.1 3.06 2.64 4.59 5.38 4.59 2.85 0 5.38-1.85 5.38-4.75 0-3.11-2.9-5.02-5.38-5.12-.32 0-2.85 0-5.54-1.21a9.88 9.88 0 0 1-6.02-9.45c0-7.02 5.6-11.29 11.56-11.29 6.38 0 11.29 4.33 11.4 10.6h-6.12c-.11-3.06-2.48-4.43-5.28-4.43-2.9 0-5.38 1.7-5.38 5.12 0 3.06 2.64 4.7 5.38 4.7.26 0 2.85 0 5.49 1.21 3.9 1.8 6.01 5.49 6.01 9.87 0 7.07-5.54 10.92-11.5 10.92-6.39-.16-11.45-3.85-11.56-10.76"/><path id="m" d="M344.77 4410.04H331.8l-1.58 4.27h-6.65l14.72-37.99 14.77 38h-6.64zm-10.97-5.33h8.95l-4.48-12.82z"/><path id="n" d="M388 4414.3h-6.23l-18.37-26.27v26.27h-6.18v-36.92h6.23l18.42 26.27v-26.27H388z"/><path id="o" d="M395.06 4404.08h6.17c.1 3.06 2.64 4.59 5.39 4.59 2.84 0 5.38-1.85 5.38-4.75 0-3.11-2.9-5.02-5.38-5.12-.32 0-2.85 0-5.55-1.21a9.88 9.88 0 0 1-6-9.45c0-7.02 5.58-11.29 11.55-11.29 6.38 0 11.29 4.33 11.4 10.6h-6.13c-.1-3.06-2.48-4.43-5.27-4.43-2.9 0-5.39 1.7-5.39 5.12 0 3.06 2.64 4.7 5.39 4.7.26 0 2.84 0 5.48 1.21 3.9 1.8 6.02 5.49 6.02 9.87 0 7.07-5.54 10.92-11.5 10.92-6.39-.16-11.45-3.85-11.56-10.76"/><path id="p" d="M191 4354.83h18.27v-3.38H191z"/><path id="q" d="M191 4371.37h18.27v-3.4H191z"/></defs><use fill="#fff" xlink:href="#a" transform="translate(-191 -4334)"/><use fill="#fff" xlink:href="#b" transform="translate(-191 -4334)"/><use fill="#fff" xlink:href="#c" transform="translate(-191 -4334)"/><use fill="#fff" xlink:href="#d" transform="translate(-191 -4334)"/><use fill="#fff" xlink:href="#e" transform="translate(-191 -4334)"/><use fill="#fff" xlink:href="#f" transform="translate(-191 -4334)"/><use fill="#fff" xlink:href="#g" transform="translate(-191 -4334)"/><use fill="#fff" xlink:href="#h" transform="translate(-191 -4334)"/><use fill="#fff" xlink:href="#i" transform="translate(-191 -4334)"/><use fill="#fff" xlink:href="#j" transform="translate(-191 -4334)"/><use fill="#fff" xlink:href="#k" transform="translate(-191 -4334)"/><use fill="#fff" xlink:href="#l" transform="translate(-191 -4334)"/><use fill="#fff" xlink:href="#m" transform="translate(-191 -4334)"/><use fill="#fff" xlink:href="#n" transform="translate(-191 -4334)"/><use fill="#fff" xlink:href="#o" transform="translate(-191 -4334)"/><use fill="#fff" xlink:href="#p" transform="translate(-191 -4334)"/><use fill="#fff" xlink:href="#q" transform="translate(-191 -4334)"/></svg>