<?xml version="1.0" encoding="utf-8"?>
<!-- Generator: Adobe Illustrator 22.1.0, SVG Export Plug-In . SVG Version: 6.00 Build 0)  -->
<svg version="1.1" id="Layer_1" xmlns="http://www.w3.org/2000/svg" xmlns:xlink="http://www.w3.org/1999/xlink" x="0px" y="0px"
	 viewBox="0 0 84 84" style="enable-background:new 0 0 84 84;" xml:space="preserve">
<style type="text/css">
	.st0{fill:#FFFFFF;}
</style>
<g>
	<g transform="translate(-1391 -2350)">
		<g>
			<path id="frgsa" class="st0" d="M1472.5,2395.7c0,1.6-1.3,2.9-2.9,2.9h-7.5c-1.6,0-2.9-1.3-2.9-2.9v-2.2h-0.7
				c-1.8,0-4.6,0.9-6,2.1l-24.8,19.4c3,0.3,5.3,2.9,5.3,5.9v1.8c0,0.8-0.7,1.5-1.5,1.5H1395c-0.8,0-1.5-0.7-1.5-1.5v-1.8
				c0-3.2,2.7-5.9,5.9-5.9h0.4v-35.4c0-5.7,4.7-10.3,10.4-10.3h6.1c3.6,0,6.8,1.8,8.7,4.6l22.5-15.1c1.6-1.1,3.7-0.7,4.8,0.9
				c1.1,1.5,0.7,3.7-0.9,4.7c0,0,0,0-0.1,0l-24.7,16.6v12.2l21.4-9.1c2.4-0.9,5-1.5,7.6-1.5h12.1c2.6,0,4.8,2.1,4.8,4.7v5.2
				L1472.5,2395.7z M1425.9,2375.6c0.3,0.9,0.6,1.8,0.7,2.8l23.5-15.8c0.6-0.4,0.8-1.2,0.4-1.8c0,0,0,0,0,0
				c-0.4-0.6-1.3-0.8-1.9-0.4L1425.9,2375.6z M1401.9,2384.1h22.6v-4.7c0-4.5-3.7-8.2-8.3-8.2h-6.1c-4.5,0-8.2,3.6-8.3,8.2
				L1401.9,2384.1z M1430.8,2420.7c0-2.1-1.7-3.8-3.8-3.8h-27.6c-2.1,0-3.8,1.7-3.8,3.8v1.2h35.2V2420.7z M1469.6,2396.5
				c0.4,0,0.8-0.4,0.8-0.8l0,0v-2.3h-0.4c-0.6,0-1.1-0.5-1.1-1c0-0.6,0.5-1.1,1.1-1.1h0.4v-4.2c0-1.5-1.2-2.6-2.7-2.6h-12.1
				c-1.9,0-5,0.6-6.7,1.4l-22.3,9.5v6.4c0,0.6-0.5,1.1-1.1,1.1c-0.6,0-1.1-0.5-1.1-1.1v-15.4h-22.6v28.6h22.6v-4.5
				c0-0.6,0.5-1.1,1.1-1.1c0.6,0,1.1,0.5,1.1,1.1v2.7l24.5-19.2c2.1-1.5,4.7-2.4,7.3-2.5h6c0.6,0,1.1,0.5,1.1,1.1s-0.5,1.1-1.1,1.1
				h-3.2v2.3c0,0.4,0.4,0.8,0.8,0.8h0L1469.6,2396.5z"/>
		</g>
	</g>
</g>
</svg>
