<?xml version="1.0" encoding="utf-8"?>
<!-- Generator: Adobe Illustrator 22.1.0, SVG Export Plug-In . SVG Version: 6.00 Build 0)  -->
<svg version="1.1" id="Layer_1" xmlns="http://www.w3.org/2000/svg" xmlns:xlink="http://www.w3.org/1999/xlink" x="0px" y="0px"
	 viewBox="0 0 84 84" style="enable-background:new 0 0 84 84;" xml:space="preserve">
<style type="text/css">
	.st0{fill:#1B2150;}
</style>
<g>
	<path class="st0" d="M61.8,1H21.4c-5,0-9.1,4-9.1,9v64.7c0,5,4.1,9,9.1,9h40.3c5,0,9.1-4,9.1-9V10C70.8,5,66.8,1,61.8,1z
		 M68.7,74.6c0,3.8-3,6.8-6.9,6.8H21.4c-3.8,0-6.9-3.1-6.9-6.8V10c0-3.8,3-6.8,6.9-6.8h40.3c3.8,0,6.9,3.1,6.9,6.8L68.7,74.6
		L68.7,74.6z"/>
	<path class="st0" d="M29.4,12.4h24.1c0.6,0,1.1-0.5,1.1-1.1s-0.5-1.1-1.1-1.1H29.4c-0.6,0-1.1,0.5-1.1,1.1
		C28.4,11.9,28.9,12.4,29.4,12.4z"/>
	<path class="st0" d="M41.5,66.2c-2.5,0-4.5,2-4.5,4.5c0,1.2,0.5,2.4,1.4,3.1c0.8,0.8,2,1.3,3.1,1.3c2.5,0,4.5-2,4.5-4.5
		C46,68.2,44,66.2,41.5,66.2z M41.6,73.1c-0.6,0-1.2-0.2-1.6-0.7c-0.5-0.5-0.7-1-0.7-1.6c0-1.3,1.1-2.3,2.3-2.3s2.3,1.1,2.3,2.3
		C44,72,42.9,73.1,41.6,73.1z"/>
	<path class="st0" d="M50.2,33.1l-12,12.1l-4.7-4.8c-1.3-1.5-3.6-1.5-5.1,0s-1.5,3.7,0,5.1l7.2,7.3c0.7,0.7,1.6,1.1,2.5,1.1
		s1.8-0.4,2.5-1.1l14.5-14.7c1.5-1.5,1.5-3.7,0-5.1C53.8,31.6,51.6,31.6,50.2,33.1z"/>
</g>
</svg>
