<?xml version="1.0" encoding="utf-8"?>
<!-- Generator: Adobe Illustrator 22.1.0, SVG Export Plug-In . SVG Version: 6.00 Build 0)  -->
<svg version="1.1" id="Layer_1" xmlns="http://www.w3.org/2000/svg" xmlns:xlink="http://www.w3.org/1999/xlink" x="0px" y="0px"
	 viewBox="0 0 84 84" style="enable-background:new 0 0 84 84;" xml:space="preserve">
<style type="text/css">
	.st0{fill:#1B2150;}
</style>
<g>
	<path class="st0" d="M63.4,38.6c2.4-3.9,3.6-8.3,3.6-12.8C67,12.1,56,1.1,42.4,1.1s-24.6,11-24.6,24.6c0,4.5,1.3,9,3.7,12.9
		c0,0.1,0,0.1,0.1,0.1l13.8,23.1l-0.6,0.1c-10.4,1.5-17,5.6-17,10.6c0,6.3,10.8,11.2,24.7,11.2c13.8,0,24.7-4.9,24.7-11.2
		c0-5-7-9.3-17.5-10.7l-0.7,0l14.3-23C63.3,38.7,63.3,38.7,63.4,38.6z M64.9,72.6c0,2.2-2.3,4.5-6.4,6.3c-4.3,1.8-10.1,2.9-16.2,2.9
		c-13.5,0-22.6-4.7-22.6-9.1c0-3.9,6.9-7.6,16.5-8.8h0.2l4.7,7.8c0.2,0.3,0.5,0.5,0.9,0.5s0.7-0.2,0.9-0.5l4.9-7.9H48
		C57.7,64.8,64.9,68.6,64.9,72.6z M61.4,37.9L46.6,61.7c-0.2,0.3-0.2,0.4-0.4,0.7L42,69.1L23.3,37.9c0-0.1-0.1-0.1-0.1-0.2
		c-2.3-3.6-3.5-7.8-3.5-12c0-12.4,10.1-22.6,22.6-22.6c12.4,0,22.6,10.1,22.6,22.6c0,4.2-1.2,8.4-3.5,12
		C61.4,37.8,61.4,37.8,61.4,37.9z"/>
	<path class="st0" d="M42.3,17c-4.8,0-8.7,3.9-8.7,8.7s3.9,8.7,8.7,8.7s8.7-3.9,8.7-8.7C51.1,20.9,47.1,17,42.3,17z M42.3,32.4
		c-3.7,0-6.7-3-6.7-6.7s3-6.7,6.7-6.7s6.7,3,6.7,6.7S46,32.4,42.3,32.4z"/>
</g>
</svg>
