<?xml version="1.0" encoding="utf-8"?>
<!-- Generator: Adobe Illustrator 22.1.0, SVG Export Plug-In . SVG Version: 6.00 Build 0)  -->
<svg version="1.1" id="Layer_1" xmlns="http://www.w3.org/2000/svg" xmlns:xlink="http://www.w3.org/1999/xlink" x="0px" y="0px"
	 viewBox="0 0 84 84" style="enable-background:new 0 0 84 84;" xml:space="preserve">
<style type="text/css">
	.st0{fill:#1B2150;}
</style>
<g>
	<path class="st0" d="M68.5,8.1H54.4V1.8c0-0.5-0.5-1-1-1H33c-0.5,0-1,0.5-1,1v6.2H17.1c-2.8,0-5.1,2.3-5.1,5.1v65.3
		c0,2.8,2.3,5.1,5.1,5.1h51.5c2.8,0,5.1-2.3,5.1-5.1l0-65.3C73.7,10.3,71.4,8.1,68.5,8.1z M33.9,2.8h18.6v19.5H33.9V2.8z M33,24.2
		h20.5c0.5,0,1-0.5,1-1v-6h9.8V74H21.4V17.3H32v5.9C32,23.8,32.5,24.2,33,24.2z M71.8,78.4c0,1.7-1.5,3.2-3.2,3.2H17.1
		c-1.7,0-3.2-1.5-3.2-3.2V13.2c0-1.7,1.5-3.2,3.2-3.2H32v5.5H20.5c-0.5,0-1,0.5-1,1V75c0,0.5,0.5,1,1,1h44.7c0.5,0,1-0.5,1-1V16.4
		c0-0.5-0.5-1-1-1H54.4V10h14.1c1.7,0,3.2,1.5,3.2,3.2V78.4z"/>
	<path class="st0" d="M25.3,39.1c0,0.5,0.5,1,1,1h33.3c0.5,0,1-0.5,1-1c0-0.5-0.5-1-1-1H26.3C25.8,38.2,25.3,38.6,25.3,39.1z"/>
	<path class="st0" d="M59.6,47.3H26.3c-0.5,0-1,0.5-1,1c0,0.5,0.5,1,1,1h33.3c0.5,0,1-0.5,1-1C60.6,47.7,60.1,47.3,59.6,47.3z"/>
	<path class="st0" d="M59.6,56.8H26.3c-0.5,0-1,0.5-1,1c0,0.5,0.5,1,1,1h33.3c0.5,0,1-0.5,1-1C60.6,57.3,60.1,56.8,59.6,56.8z"/>
</g>
</svg>
